<?xml version="1.0" encoding="UTF-8"?>
<svg id="Camada_1" data-name="Camada 1" xmlns="http://www.w3.org/2000/svg" viewBox="0 0 230 80">
  <defs>
    <style>
      .cls-1 {
        fill: #4d4d4d;
      }

      .cls-2 {
        fill: #ff7830;
      }
    </style>
  </defs>
  <path class="cls-1" d="m77.02,42.83c2.69,3.46,6.36,5.22,9.82,5.22,5.3,0,11.17-3.06,11.41-8.64.33-7.09-4.81-8.89-9.95-9.82-2.24-.49-3.75-1.3-3.83-2.69.12-3.34,5.3-3.46,8.31-.24l4.77-3.67c-2.98-3.63-6.36-4.61-9.86-4.61-5.3,0-10.43,2.98-10.43,8.64s4.24,8.44,8.89,9.17c2.36.33,5.01,1.26,4.93,2.89-.2,3.1-6.56,2.93-9.46-.57l-4.61,4.32Z"/>
  <path class="cls-1" d="m177.72,55.58c-.12,0-.23.02-.35.05-.12.03-.22.08-.31.14-.09.06-.17.14-.23.23-.06.09-.09.2-.09.32v1.79c0,.12.03.23.09.33.06.1.13.18.23.25.09.07.2.12.31.15.12.03.23.05.35.05.11,0,.22-.02.33-.05.11-.03.22-.09.31-.15.09-.07.17-.15.23-.25.06-.1.09-.21.09-.33v-1.79c0-.12-.03-.23-.09-.32-.06-.09-.13-.17-.23-.23-.09-.06-.19-.11-.31-.14-.11-.03-.22-.05-.33-.05m-2.1.74c0-.31.06-.57.18-.8.12-.23.28-.42.48-.57.2-.15.42-.27.68-.35.25-.08.51-.12.77-.12s.5.04.75.12c.25.08.47.19.67.35.2.15.36.34.48.57.12.23.18.49.18.8v1.85c0,.31-.06.58-.18.81-.12.23-.28.42-.48.57-.2.15-.42.27-.67.34-.25.08-.5.11-.75.11s-.52-.04-.77-.11c-.25-.08-.48-.19-.68-.34-.2-.15-.36-.35-.48-.57-.12-.23-.18-.5-.18-.81v-1.85Zm-1.58-1.73h1.2l-1.89,5.31h-1.16l-1.88-5.31h1.19l1.07,3.1.17,1.06h.07l.18-1.06,1.04-3.1Zm-4.37,5.31h-1.16v-5.3h1.16v5.3Zm-1.29-6.64c0-.21.07-.39.21-.53.14-.14.32-.22.53-.22s.39.07.53.22c.14.14.22.32.22.53s-.07.39-.22.53c-.14.14-.32.22-.53.22s-.39-.07-.53-.22c-.14-.14-.21-.32-.21-.53m-1.06,6.75c-.26,0-.5-.04-.73-.11-.23-.07-.43-.18-.6-.34-.17-.15-.3-.35-.4-.59-.1-.24-.14-.53-.14-.86v-4.77h1.01l.1,1.25h1.01v1.03h-1.01v2.48c0,.21.03.38.1.5.06.12.15.21.26.27.11.06.23.09.37.11.14.01.29.02.45.02v.98c-.14.02-.28.03-.42.03m-5-2.42c-.33,0-.58.07-.76.22-.18.15-.27.34-.27.57,0,.12.03.23.08.32.05.09.13.16.22.22s.2.09.31.12c.12.02.24.04.37.04.18,0,.36-.01.52-.03.16-.02.31-.05.43-.08v-1.18c-.12-.05-.25-.1-.42-.13-.16-.03-.33-.05-.5-.05m.91-1.31c0-.13-.03-.24-.09-.34-.06-.1-.14-.18-.25-.25-.1-.06-.22-.11-.35-.14-.13-.03-.27-.05-.42-.05-.21,0-.42.04-.62.11-.2.07-.37.18-.5.33l-.64-.66c.29-.32.59-.53.91-.64.32-.1.65-.15.99-.15.26,0,.51.04.76.11.25.07.47.18.67.32.2.14.36.32.48.54.12.22.18.48.18.78v3.4c-.25.1-.55.18-.9.25-.35.07-.72.11-1.11.11-.28,0-.55-.03-.81-.08-.26-.05-.49-.14-.69-.26s-.36-.29-.48-.5c-.12-.21-.18-.47-.18-.78,0-.29.06-.55.17-.76.11-.21.26-.39.45-.53.18-.14.4-.24.63-.31.24-.07.48-.1.72-.1.19,0,.38.02.56.05.18.03.36.09.51.15v-.62Zm-4.05-1.78c.09,0,.18,0,.28.01.1,0,.21.02.32.05v.99c-.12-.03-.26-.05-.41-.05h-.07c-.18,0-.34.04-.5.11-.15.07-.28.16-.38.28-.1.12-.15.27-.15.45v3.57h-1.13v-3.59c0-.38.09-.71.28-.97s.42-.48.71-.63c.08-.04.18-.08.28-.11.11-.03.21-.05.31-.07.1-.02.19-.03.28-.04.08,0,.14-.01.18-.01m-5.12,1.1c-.12,0-.23.02-.35.05-.12.03-.22.08-.31.14-.09.06-.17.14-.23.23-.06.09-.09.2-.09.32v1.79c0,.12.03.23.09.33.06.1.13.18.23.25.09.07.2.12.31.15.12.03.23.05.35.05.11,0,.22-.02.33-.05.11-.03.22-.09.31-.15.09-.07.17-.15.23-.25.06-.1.09-.21.09-.33v-1.79c0-.12-.03-.23-.09-.32-.06-.09-.13-.17-.23-.23-.09-.06-.19-.11-.31-.14-.11-.03-.22-.05-.33-.05m-2.1.74c0-.31.06-.57.18-.8.12-.23.28-.42.48-.57.2-.15.42-.27.68-.35.25-.08.51-.12.77-.12s.5.04.75.12c.25.08.47.19.67.35.2.15.36.34.48.57.12.23.18.49.18.8v1.85c0,.31-.06.58-.18.81-.12.23-.28.42-.48.57-.2.15-.42.27-.67.34-.25.08-.5.11-.75.11s-.52-.04-.77-.11c-.25-.08-.48-.19-.68-.34-.2-.15-.36-.35-.48-.57-.12-.23-.18-.5-.18-.81v-1.85Zm-3.24,2.69h.09c.28,0,.53-.06.75-.18.22-.12.35-.32.37-.61v-1.9c0-.15-.03-.28-.09-.39-.06-.11-.14-.2-.24-.27-.1-.07-.21-.12-.34-.15-.13-.03-.27-.05-.41-.05-.31,0-.6.06-.85.17v3.24c.12.04.26.07.4.09.1.02.21.03.32.03m.11-4.52h.08c.28,0,.55.03.81.1.26.07.49.17.69.32.2.14.36.33.48.57.12.24.18.52.18.87v1.88c0,.29-.06.55-.18.77-.12.22-.28.41-.47.56-.19.15-.42.26-.67.34-.25.08-.5.11-.75.11h-.09c-.14,0-.28-.01-.42-.04-.16-.03-.32-.08-.48-.14v1.82h-1.13v-6.72c.29-.13.61-.24.97-.32.33-.08.66-.11.98-.11m-3.28,0c.09,0,.18,0,.28.01.1,0,.21.02.32.05v.99c-.12-.03-.26-.05-.41-.05h-.07c-.18,0-.34.04-.5.11-.15.07-.28.16-.38.28-.1.12-.15.27-.15.45v3.57h-1.13v-3.59c0-.38.09-.71.28-.97.18-.27.42-.48.71-.63.08-.04.18-.08.28-.11.11-.03.21-.05.31-.07.1-.02.19-.03.28-.04.08,0,.14-.01.18-.01m-5.12,1.1c-.12,0-.23.02-.35.05-.12.03-.22.08-.31.14-.09.06-.17.14-.23.23-.06.09-.09.2-.09.32v1.79c0,.12.03.23.09.33.06.1.13.18.23.25.09.07.2.12.31.15.12.03.23.05.35.05.11,0,.22-.02.33-.05.11-.03.22-.09.31-.15.09-.07.17-.15.23-.25.06-.1.09-.21.09-.33v-1.79c0-.12-.03-.23-.09-.32-.06-.09-.13-.17-.23-.23-.09-.06-.19-.11-.31-.14-.11-.03-.22-.05-.33-.05m-2.1.74c0-.31.06-.57.18-.8.12-.23.28-.42.48-.57.2-.15.42-.27.68-.35.25-.08.51-.12.77-.12s.5.04.75.12c.25.08.47.19.67.35.2.15.36.34.48.57.12.23.18.49.18.8v1.85c0,.31-.06.58-.18.81-.12.23-.28.42-.48.57-.2.15-.42.27-.67.34-.25.08-.5.11-.75.11s-.52-.04-.77-.11c-.25-.08-.48-.19-.68-.34-.2-.15-.36-.35-.48-.57-.12-.23-.18-.5-.18-.81v-1.85Zm-6.11-1.45c0-.39.08-.73.24-1.02.16-.29.37-.53.64-.73.26-.19.56-.34.9-.44.34-.1.68-.15,1.04-.15.27,0,.53.03.79.1.26.07.51.17.74.31.24.14.45.31.65.52.2.21.36.45.49.73l-1.06.52c-.18-.33-.42-.58-.72-.74-.3-.17-.61-.25-.93-.25-.2,0-.39.02-.58.07-.19.05-.36.12-.51.22-.15.1-.27.22-.36.36-.09.14-.14.31-.14.5v2.79c0,.19.05.36.14.5.09.14.21.26.36.36.15.1.32.17.51.22.19.05.39.07.58.07.33,0,.64-.08.94-.25.3-.16.54-.41.71-.74l1.06.49c-.14.28-.3.53-.5.74-.2.21-.42.39-.65.53-.24.14-.49.24-.75.31-.27.07-.53.1-.8.1-.35,0-.69-.05-1.02-.14-.33-.1-.63-.24-.89-.44-.26-.19-.47-.44-.63-.73-.16-.29-.24-.64-.24-1.03v-2.79Zm-4.73,4.08h.03c.19,0,.36-.05.49-.15.14-.1.21-.25.23-.45,0-.1-.03-.18-.08-.24-.05-.06-.12-.12-.2-.16-.08-.04-.17-.08-.27-.11-.1-.03-.19-.05-.28-.07-.18-.03-.39-.09-.61-.15-.22-.07-.43-.16-.62-.29-.19-.12-.35-.28-.47-.48-.13-.2-.19-.45-.19-.75s.06-.54.18-.75c.12-.21.28-.37.47-.5.19-.13.4-.22.64-.28.24-.06.47-.09.69-.09.29,0,.58.06.89.18.3.12.59.31.85.57l-.68.74c-.15-.15-.33-.26-.55-.34-.22-.08-.42-.11-.62-.11s-.37.04-.51.12c-.14.08-.22.2-.24.36-.01.12,0,.22.07.3.06.09.13.16.23.21.1.05.2.1.32.13.12.03.23.06.34.08.21.03.42.08.63.15.21.06.39.16.56.28.16.12.3.28.4.47.11.19.16.42.16.7s-.05.52-.15.73c-.1.21-.24.38-.41.52-.17.14-.37.24-.59.31-.23.07-.46.11-.7.11-.21,0-.42-.03-.63-.08-.21-.05-.41-.13-.59-.24-.19-.11-.36-.24-.51-.4-.15-.16-.28-.35-.37-.56l.84-.54c.14.25.34.44.58.57.23.12.46.18.68.18m-4.9-3.37c-.12,0-.23.02-.35.05-.12.03-.22.08-.31.14-.09.06-.17.14-.23.23-.06.09-.09.2-.09.32v1.79c0,.12.03.23.09.33.06.1.13.18.23.25.09.07.2.12.31.15.12.03.23.05.35.05.11,0,.22-.02.33-.05.11-.03.22-.09.31-.15.09-.07.17-.15.23-.25.06-.1.09-.21.09-.33v-1.79c0-.12-.03-.23-.09-.32-.06-.09-.13-.17-.23-.23-.09-.06-.19-.11-.31-.14-.11-.03-.22-.05-.33-.05m-2.1.74c0-.31.06-.57.18-.8.12-.23.28-.42.48-.57.2-.15.42-.27.68-.35.25-.08.51-.12.77-.12s.5.04.75.12c.25.08.47.19.67.35.2.15.36.34.48.57.12.23.18.49.18.8v1.85c0,.31-.06.58-.18.81-.12.23-.28.42-.48.57-.2.15-.42.27-.67.34-.25.08-.5.11-.75.11s-.52-.04-.77-.11c-.25-.08-.48-.19-.68-.34-.2-.15-.36-.35-.48-.57-.12-.23-.18-.5-.18-.81v-1.85Zm-1.07,3.68c-.26,0-.5-.04-.73-.11-.23-.07-.43-.18-.6-.34-.17-.15-.3-.35-.4-.59-.1-.24-.14-.53-.14-.86v-4.77h1.02l.1,1.25h1.01v1.03h-1.01v2.48c0,.21.03.38.1.5.06.12.15.21.26.27s.23.09.37.11c.14.01.29.02.45.02v.98c-.14.02-.28.03-.42.03m-2.99-3.63v3.53h-1.12v-3.52c0-.15-.05-.28-.12-.38-.07-.11-.16-.19-.27-.26-.11-.07-.23-.12-.36-.15-.13-.03-.27-.05-.41-.05-.14,0-.28.02-.42.05-.13.03-.25.08-.34.14v4.17h-1.13v-4.98c.26-.14.55-.24.86-.31.31-.07.63-.11.95-.12.3,0,.59.03.88.1.28.07.53.18.75.33.22.15.39.34.52.58.13.24.19.53.19.87m-6.19-.04c0-.12-.03-.23-.08-.32-.05-.09-.13-.17-.22-.24-.09-.07-.2-.11-.31-.14-.12-.03-.24-.05-.36-.05s-.24.02-.36.05c-.12.03-.23.08-.32.14-.09.06-.17.15-.22.24-.05.1-.08.21-.07.34v.48h1.95v-.5Zm-.98,3.67c-.26,0-.52-.04-.77-.11-.25-.08-.48-.19-.68-.34-.2-.15-.36-.34-.48-.57-.12-.23-.18-.49-.18-.8v-1.87c0-.31.06-.58.18-.8.12-.23.28-.42.48-.57.2-.15.42-.26.68-.34.25-.08.51-.11.77-.11s.5.04.75.11c.25.08.47.19.67.34.19.15.35.34.47.57.12.23.18.5.18.8v1.46h-3.04v.37c0,.12.03.23.08.32.05.09.12.17.21.24.09.07.18.12.3.15.11.03.23.05.35.05.2,0,.39-.04.57-.12.18-.08.32-.22.42-.42l.94.54c-.1.18-.23.34-.37.48-.15.13-.3.25-.47.34-.17.09-.34.16-.53.21-.18.04-.36.07-.53.07m-3.11-3.76v3.66h-1.12v-3.62c0-.24-.09-.42-.26-.53-.17-.11-.37-.17-.59-.17-.11,0-.22.02-.32.05-.11.03-.2.07-.29.13-.09.05-.15.12-.2.21-.05.08-.08.17-.08.28v3.66h-1.11v-3.64c0-.12-.03-.23-.08-.31-.05-.09-.12-.16-.21-.21-.09-.05-.19-.09-.3-.12-.11-.02-.23-.04-.35-.04-.14,0-.27.02-.4.05-.13.03-.25.09-.37.16v4.1h-1.11v-4.85c.23-.16.51-.3.83-.4.32-.1.65-.16.97-.16.32,0,.62.05.9.15.28.1.49.29.65.55.16-.23.37-.41.63-.52.26-.12.54-.18.83-.18.24,0,.48.04.71.11.24.07.45.18.63.32.18.14.34.33.45.55.12.22.17.48.17.77m-7.96,3.66h-1.16v-5.3h1.16v5.3Zm-1.29-6.64c0-.21.07-.39.21-.53.14-.14.32-.22.53-.22s.39.07.53.22c.14.14.22.32.22.53s-.07.39-.22.53c-.14.14-.32.22-.53.22s-.39-.07-.53-.22c-.14-.14-.21-.32-.21-.53m-1.17,1.23c.09,0,.18,0,.28.01.1,0,.21.02.32.05v.99c-.12-.03-.26-.05-.41-.05h-.07c-.18,0-.34.04-.5.11-.15.07-.28.16-.38.28-.1.12-.15.27-.15.45v3.57h-1.13v-3.59c0-.38.09-.71.28-.97.18-.27.42-.48.71-.63.08-.04.18-.08.28-.11.11-.03.21-.05.31-.07.1-.02.19-.03.28-.04.08,0,.14-.01.18-.01m-5.39,4.52h.09c.28,0,.53-.06.75-.18.22-.12.35-.32.37-.61v-1.9c0-.15-.03-.28-.09-.39-.06-.11-.14-.2-.24-.27-.1-.07-.21-.12-.34-.15-.13-.03-.27-.05-.41-.05-.31,0-.6.06-.85.17v3.24c.12.04.26.07.4.09.1.02.21.03.32.03m.11-4.52h.08c.28,0,.55.03.81.1.26.07.49.17.69.32.2.14.36.33.48.57.12.24.18.52.18.87v1.88c0,.29-.06.55-.18.77-.12.22-.28.41-.47.56-.19.15-.42.26-.67.34-.25.08-.5.11-.75.11h-.09c-.14,0-.28-.01-.42-.04-.16-.03-.32-.08-.48-.14v1.82h-1.13v-6.72c.29-.13.61-.24.97-.32.33-.08.66-.11.98-.11m-5.17,5.52c-.29,0-.56-.03-.82-.1-.26-.07-.49-.18-.68-.33-.19-.15-.34-.34-.46-.57-.11-.23-.17-.51-.17-.84v-3.57h1.13v3.59c0,.15.04.28.11.38.07.11.16.19.26.26.11.07.23.12.36.15.13.03.27.05.42.05s.27-.02.41-.05c.13-.03.25-.08.36-.13v-4.26h1.12v4.97c-.33.14-.67.24-1.02.32-.35.08-.69.12-1.03.12m-7.12-5.33c0,.14.04.27.13.37.09.1.2.19.34.26.14.07.31.12.49.17s.37.08.56.12c.31.06.63.14.95.24.32.1.61.23.86.41.25.18.45.41.6.69.12.24.18.53.18.86,0,.06,0,.13-.01.19-.01.35-.1.65-.26.9-.16.25-.37.46-.62.63-.25.17-.54.29-.86.37s-.64.12-.97.12c-.28,0-.55-.04-.82-.11-.27-.08-.52-.19-.76-.33-.24-.15-.46-.33-.65-.55-.19-.22-.36-.47-.49-.76l1.09-.49c.16.35.39.61.69.79.3.18.62.27.96.27.18,0,.36-.02.54-.06.17-.04.33-.09.47-.17.14-.08.25-.17.33-.29.09-.12.13-.26.15-.42v-.08c0-.17-.03-.31-.1-.42-.09-.13-.21-.24-.36-.32s-.33-.15-.53-.2c-.2-.05-.42-.1-.64-.14-.3-.06-.6-.14-.89-.23-.29-.09-.55-.22-.78-.38s-.42-.36-.57-.61c-.15-.25-.22-.55-.22-.91.02-.33.11-.62.26-.88.15-.26.35-.47.59-.65.24-.17.51-.31.82-.39.3-.09.61-.13.93-.13.27,0,.54.03.8.08.26.05.5.15.73.27.23.13.43.29.62.49.19.2.34.44.47.73l-1.08.48c-.16-.34-.37-.57-.64-.69-.27-.12-.57-.17-.9-.17-.18,0-.35.02-.52.06-.17.04-.32.1-.45.18-.13.08-.24.18-.32.3-.08.12-.12.25-.12.41"/>
  <path class="cls-1" d="m182.62,58.95h.03c.19,0,.36-.05.49-.15.14-.1.21-.25.23-.45,0-.1-.03-.18-.08-.24-.05-.06-.12-.12-.2-.16-.08-.04-.17-.08-.27-.11-.1-.03-.19-.05-.28-.07-.18-.03-.39-.09-.61-.15-.22-.07-.43-.16-.62-.29-.19-.12-.35-.28-.47-.48-.13-.2-.19-.45-.19-.75s.06-.54.18-.75c.12-.21.28-.37.47-.5.19-.13.4-.22.64-.28.24-.06.47-.09.69-.09.29,0,.58.06.89.18.3.12.59.31.85.57l-.68.74c-.15-.15-.33-.26-.55-.34-.22-.08-.42-.11-.62-.11s-.37.04-.51.12c-.14.08-.22.2-.24.36-.01.12,0,.22.07.3.06.09.14.16.23.21.1.05.2.1.32.13.12.03.23.06.34.08.21.03.42.08.63.15.21.06.39.16.56.28.16.12.3.28.4.47.11.19.16.42.16.7s-.05.52-.15.73c-.1.21-.24.38-.41.52-.17.14-.37.24-.59.31-.23.07-.46.11-.7.11-.21,0-.42-.03-.63-.08-.21-.05-.41-.13-.59-.24-.19-.11-.36-.24-.51-.4-.15-.16-.28-.35-.37-.56l.84-.54c.14.25.34.44.58.57.23.12.46.18.68.18"/>
  <path class="cls-2" d="m70.1,26.08c.38,0,.84.03,1.38.1.54.07,1.26.21,2.15.43v5.97c-.54-.24-1.11-.38-1.71-.41-.14-.03-.26-.04-.37-.04-.46,0-.91.07-1.34.2-.49.19-.89.47-1.22.85-.33.38-.49.85-.49,1.42v12.92h-6.87v-13.25c0-1.44.22-2.67.65-3.7.43-1.03,1.04-1.88,1.81-2.56.77-.68,1.67-1.17,2.68-1.48,1.02-.31,2.12-.47,3.31-.47"/>
  <path class="cls-2" d="m49.03,30.02c.89,0,1.57-.26,2.03-.77.46-.57.69-1.18.69-1.83s-.23-1.23-.69-1.75c-.43-.51-1.11-.77-2.03-.77h-4.23v5.12h4.23Zm0,11.13c1.08,0,1.9-.3,2.44-.91.54-.61.81-1.29.81-2.03s-.27-1.42-.81-2.03c-.54-.61-1.35-.91-2.44-.91h-4.23v5.89h4.23Zm10.52-2.23c0,.43-.03.83-.08,1.18-.38,2.33-1.38,4.15-3.01,5.47-1.63,1.31-4.04,1.97-7.23,1.97h-11.74v-28.77h11.54c1.38,0,2.65.2,3.8.61,1.15.41,2.15.98,2.99,1.73.84.74,1.48,1.66,1.91,2.74.43,1.03.65,2.18.65,3.45v.24c0,.33-.06.7-.18,1.14-.12.43-.3.87-.55,1.3-.24.43-.55.85-.91,1.24-.37.39-.81.72-1.32,1,.98.49,1.75,1.07,2.34,1.75.58.68,1.02,1.38,1.3,2.11.28.73.44,1.45.47,2.15.03.24.04.47.04.69"/>
  <path class="cls-1" d="m106.82,39.93c0,.13,0,.25.02.36.02.11.04.22.07.31.03.09.07.18.11.27.04.08.09.16.15.23.06.08.13.16.2.23.07.07.15.14.23.2.08.06.16.12.25.17.09.05.18.1.28.14.2.08.41.15.63.19.22.04.44.06.68.06.12,0,.24,0,.35-.02.11-.01.22-.03.33-.05.11-.02.21-.05.32-.08.1-.03.2-.07.3-.12.1-.04.19-.09.28-.14.09-.05.18-.11.26-.17.08-.06.16-.13.23-.2.07-.07.15-.15.21-.23.12-.14.21-.31.27-.5.06-.19.09-.41.09-.65v-15.11h6.63v15.11c0,.34-.02.66-.05.98-.03.32-.08.63-.15.93-.07.3-.15.6-.26.88-.1.28-.22.56-.36.82-.14.26-.28.51-.44.74-.16.24-.32.46-.5.68-.18.21-.37.42-.57.61-.2.19-.41.38-.63.55-.22.17-.44.33-.68.48-.2.13-.42.25-.64.37h0s-.09.05-.09.05c-.25.13-.5.24-.76.35-.26.11-.53.2-.81.29-.27.08-.55.16-.83.22-.28.06-.56.12-.83.16-.28.04-.56.07-.85.09-.28.02-.57.03-.85.03-.57,0-1.14-.04-1.7-.13-.56-.08-1.12-.21-1.67-.38-.28-.08-.55-.18-.81-.29-.25-.1-.5-.22-.74-.34h-.02c-.25-.14-.49-.28-.72-.43-.23-.15-.46-.31-.67-.48-.22-.17-.43-.35-.62-.55-.2-.19-.38-.4-.56-.62-.17-.21-.34-.44-.49-.68-.15-.24-.3-.48-.43-.74-.14-.27-.25-.54-.35-.82-.1-.28-.18-.57-.25-.87-.07-.3-.12-.61-.15-.93s-.05-.65-.05-.99v-15.11h6.63v15.11Z"/>
  <path class="cls-1" d="m130.01,35.42c.12,0,.23,0,.33-.02.1-.01.2-.03.29-.06.09-.03.17-.06.25-.1.08-.04.15-.08.22-.13.08-.05.15-.11.21-.17.07-.06.13-.12.18-.19.05-.07.1-.14.15-.21.05-.07.09-.15.13-.23.04-.08.07-.17.1-.26.03-.09.05-.17.07-.27.02-.09.03-.18.04-.28,0-.09.01-.19.01-.29s0-.2-.01-.29c0-.09-.02-.19-.04-.28-.02-.09-.04-.18-.07-.27-.03-.09-.06-.17-.1-.26-.04-.08-.08-.16-.13-.23-.05-.07-.1-.14-.15-.21-.06-.07-.12-.13-.18-.19-.07-.06-.14-.12-.21-.17-.07-.05-.14-.09-.22-.13-.08-.04-.16-.07-.25-.09-.09-.03-.19-.05-.29-.06-.1-.01-.21-.02-.33-.02h-2.72v4.41h2.72Zm-8.77-10.6h8.77c.7,0,1.36.06,1.98.18.31.06.61.13.91.22.29.09.57.19.84.31.26.12.52.24.76.38.24.14.48.28.7.44.23.16.44.32.64.5.2.18.39.36.57.55.18.19.35.39.5.6.16.21.3.42.44.65.14.22.26.45.37.69.11.24.21.48.3.72.09.25.16.49.23.74.07.25.12.5.16.75.04.25.08.51.1.76.02.25.03.51.03.77,0,.51-.05,1.03-.14,1.53-.09.51-.23,1.01-.41,1.51-.09.25-.19.5-.31.73-.11.24-.24.47-.37.69-.13.22-.28.43-.43.64-.16.21-.32.41-.5.6-.18.2-.37.38-.57.56-.2.18-.41.34-.63.5-.22.16-.46.3-.7.44-.24.14-.5.26-.76.38-.53.24-1.11.41-1.73.53-.62.12-1.27.18-1.97.18h-2.75v6.42h-6.57v-22.97h.51Z"/>
  <path class="cls-1" d="m149.82,35.42c.12,0,.23,0,.33-.02.1-.01.2-.03.29-.06.09-.03.17-.06.25-.1.08-.04.15-.08.22-.13.08-.05.15-.11.21-.17.07-.06.13-.12.18-.19.05-.07.1-.14.15-.21.05-.07.09-.15.13-.23.04-.08.07-.17.1-.26.03-.09.05-.17.07-.27.02-.09.03-.18.04-.28,0-.09.01-.19.01-.29s0-.2-.01-.29c0-.09-.02-.19-.04-.28-.02-.09-.04-.18-.07-.27-.03-.09-.06-.17-.1-.26-.04-.08-.08-.16-.13-.23-.05-.07-.1-.14-.15-.21-.06-.07-.12-.13-.18-.19-.07-.06-.14-.12-.21-.17-.07-.05-.14-.09-.22-.13-.08-.04-.16-.07-.25-.09-.09-.03-.19-.05-.29-.06-.1-.01-.21-.02-.33-.02h-2.72v4.41h2.72Zm-8.77-10.6h8.77c.7,0,1.36.06,1.98.18.31.06.61.13.91.22.29.09.57.19.84.31.26.12.52.24.76.38.24.14.48.28.7.44.23.16.44.32.64.5.2.18.39.36.57.55.18.19.35.39.5.6.16.21.3.42.44.65.14.22.26.45.37.69.11.24.21.48.3.72.09.25.16.49.23.74.07.25.12.5.16.75.04.25.08.51.1.76.02.25.03.51.03.77,0,.51-.05,1.03-.14,1.53-.09.51-.23,1.01-.41,1.51-.09.25-.19.5-.31.73-.11.24-.24.47-.37.69-.13.22-.28.43-.43.64-.16.21-.32.41-.5.6-.18.2-.37.38-.57.56-.2.18-.41.34-.63.5-.22.16-.46.3-.7.44-.24.14-.5.26-.76.38-.53.24-1.11.41-1.73.53-.62.12-1.27.18-1.97.18h-2.75v6.42h-6.57v-22.97h.51Z"/>
  <polygon class="cls-1" points="160.85 24.82 166.43 24.82 166.85 24.82 166.94 24.82 166.94 24.91 166.94 25.33 166.94 41.28 175.36 41.28 175.78 41.28 175.87 41.28 175.87 41.38 175.87 41.79 175.87 47.28 175.87 47.69 175.87 47.79 175.78 47.79 175.36 47.79 160.85 47.79 160.44 47.79 160.34 47.79 160.34 47.69 160.34 47.28 160.34 25.33 160.34 24.91 160.34 24.82 160.44 24.82 160.85 24.82"/>
  <polygon class="cls-1" points="177.88 38.76 170.29 25.58 169.93 24.96 169.85 24.82 170.01 24.82 170.73 24.82 177.18 24.82 177.43 24.82 177.49 24.82 177.52 24.87 177.63 25.1 181.15 32.24 184.66 25.1 184.77 24.87 184.8 24.82 184.86 24.82 185.11 24.82 191.63 24.82 192.34 24.82 192.51 24.82 192.42 24.96 192.06 25.58 184.45 38.76 184.45 47.79 177.88 47.79 177.88 38.76"/>
</svg>